HIERARCHY
ROOT Hips
{
    OFFSET 0.000000 0.000000 0.000000
    CHANNELS 6 Xposition Yposition Zposition Zrotation Xrotation Yrotation
    JOINT Spine
    {
        OFFSET -0.000000 14.517291 0.000000
        CHANNELS 3 Zrotation Xrotation Yrotation
        JOINT Spine1
        {
            OFFSET -0.000000 37.558300 0.000000
            CHANNELS 3 Zrotation Xrotation Yrotation
            JOINT Neck
            {
                OFFSET -0.000000 37.404057 3.400369
                CHANNELS 3 Zrotation Xrotation Yrotation
                JOINT Head
                {
                    OFFSET -0.000000 24.785618 -3.540803
                    CHANNELS 3 Zrotation Xrotation Yrotation
                    End Site
                    {
                        OFFSET -0.000000 35.408028 0.000000
                    }
                }
            }
            JOINT LeftShoulder
            {
                OFFSET 6.992933 33.973492 -0.192664
                CHANNELS 3 Zrotation Xrotation Yrotation
                JOINT LeftArm
                {
                    OFFSET 21.527611 0.000000 0.000000
                    CHANNELS 3 Zrotation Xrotation Yrotation
                    JOINT LeftForeArm
                    {
                        OFFSET 56.353916 0.000000 0.000000
                        CHANNELS 3 Zrotation Xrotation Yrotation
                        JOINT LeftHand
                        {
                            OFFSET 47.774071 0.000000 0.000000
                            CHANNELS 3 Zrotation Xrotation Yrotation
                            End Site
                            {
                                OFFSET 26.556021 0.000000 0.000000
                            }
                        }
                    }
                }
            }
            JOINT RightShoulder
            {
                OFFSET -7.065357 33.973492 -0.192664
                CHANNELS 3 Zrotation Xrotation Yrotation
                JOINT RightArm
                {
                    OFFSET -21.527611 0.000000 0.000000
                    CHANNELS 3 Zrotation Xrotation Yrotation
                    JOINT RightForeArm
                    {
                        OFFSET -56.353916 0.000000 0.000000
                        CHANNELS 3 Zrotation Xrotation Yrotation
                        JOINT RightHand
                        {
                            OFFSET -47.774071 0.000000 0.000000
                            CHANNELS 3 Zrotation Xrotation Yrotation
                            End Site
                            {
                                OFFSET -26.556021 0.000000 0.000000
                            }
                        }
                    }
                }
            }
        }
    }
    JOINT LeftUpLeg
    {
        OFFSET 17.704014 0.000000 0.000000
        CHANNELS 3 Zrotation Xrotation Yrotation
        JOINT LeftLeg
        {
            OFFSET -0.000000 -81.181816 0.000000
            CHANNELS 3 Zrotation Xrotation Yrotation
            JOINT LeftFoot
            {
                OFFSET -0.000000 -62.821102 0.000000
                CHANNELS 3 Zrotation Xrotation Yrotation
                JOINT LeftToeBase
                {
                    OFFSET -0.000000 -11.507608 26.556021
                    CHANNELS 3 Zrotation Xrotation Yrotation
                    End Site
                    {
                        OFFSET -0.000000 0.000000 7.081605
                    }
                }
            }
        }
    }
    JOINT RightUpLeg
    {
        OFFSET -17.704014 0.000000 0.000000
        CHANNELS 3 Zrotation Xrotation Yrotation
        JOINT RightLeg
        {
            OFFSET -0.000000 -81.181816 0.000000
            CHANNELS 3 Zrotation Xrotation Yrotation
            JOINT RightFoot
            {
                OFFSET -0.000000 -62.821102 0.000000
                CHANNELS 3 Zrotation Xrotation Yrotation
                JOINT RightToeBase
                {
                    OFFSET -0.000000 -11.507608 26.556021
                    CHANNELS 3 Zrotation Xrotation Yrotation
                    End Site
                    {
                        OFFSET -0.000000 0.000000 7.081605
                    }
                }
            }
        }
    }
}
MOTION
Frames:    13
Frame Time:    0.008333
-21.912205    166.991776    -19.103607    -12.097227    -21.418003    39.767090    4.789181    3.694510    -10.286851    -5.138235    6.268867    -3.097198    33.512894    8.359587    -0.662470    -6.771979    -6.588015    -4.566228    16.489508    9.327683    -29.139484    -31.227819    5.725610    -54.857922    -1.983907    -30.381021    -100.783745    -15.260882    -30.060732    -20.436357    -4.319281    -8.113952    -15.649332    4.709299    -0.798954    5.053681    21.614803    21.581539    64.929832    -16.970064    4.236904    25.590538    26.312326    -1.386598    7.406777    -3.301437    32.783226    -17.479467    6.313879    -17.526419    31.397837    0.000000    0.000000    0.000000    -93.228149    -47.105690    -57.481548    9.174500    20.851517    -7.260616    16.530966    18.895927    -24.486315    0.000000    0.000000    0.000000    
-21.883875    166.984116    -19.131891    -12.067115    -21.414747    39.800274    4.762146    3.665148    -10.247667    -5.002854    6.356236    -3.088428    33.324100    8.183434    -0.644009    -6.747731    -6.462942    -4.575112    16.388977    9.288672    -29.004875    -31.229475    5.824912    -54.952072    -1.958264    -30.438349    -100.788971    -15.325601    -30.079981    -20.447483    -3.942397    -7.997261    -15.597727    5.241217    -0.739677    5.012009    21.308949    20.913403    65.267273    -16.602072    3.791228    25.130379    26.278393    -1.381888    7.387251    -3.314456    32.779709    -17.455715    6.322785    -17.535004    31.375652    0.000000    0.000000    0.000000    -93.229240    -47.066086    -57.449833    9.178674    20.840265    -7.257782    16.539284    18.879726    -24.507296    0.000000    0.000000    0.000000    
-21.911726    166.963669    -19.173687    -12.081174    -21.362820    39.839676    4.694053    3.618516    -10.219093    -4.798165    6.408417    -3.089430    33.096729    8.012939    -0.618901    -6.706553    -6.354414    -4.569075    16.248411    9.237242    -28.885246    -31.161242    5.982440    -55.013851    -1.896357    -30.578400    -100.806671    -15.353230    -30.151772    -20.448776    -3.613724    -7.880964    -15.577953    5.847829    -0.706224    4.985720    20.944599    20.242979    65.655815    -16.288572    3.341795    24.780682    26.263332    -1.483482    7.415073    -3.310247    32.813538    -17.453211    6.307932    -17.545259    31.333696    0.000000    0.000000    0.000000    -93.316048    -47.041664    -57.518238    9.152624    20.859964    -7.286842    16.539724    18.888214    -24.493109    0.000000    0.000000    0.000000    
-21.881966    166.952698    -19.201582    -12.039180    -21.367891    39.876122    4.659882    3.598307    -10.172379    -4.637115    6.514371    -3.079233    32.879658    7.820564    -0.596804    -6.676081    -6.233624    -4.574440    16.116167    9.186456    -28.758978    -31.110008    6.120680    -55.096790    -1.844102    -30.684095    -100.822166    -15.373497    -30.198423    -20.465445    -3.267570    -7.781433    -15.551455    6.496456    -0.556142    4.935983    20.337814    19.391779    66.159363    -15.946216    2.846231    24.428986    26.226307    -1.471199    7.427840    -3.298780    32.822296    -17.469063    6.306924    -17.562597    31.308672    0.000000    0.000000    0.000000    -93.313011    -47.009468    -57.472363    9.161304    20.853941    -7.308626    16.519487    18.884853    -24.490112    0.000000    0.000000    0.000000    
-21.861074    166.932800    -19.236263    -12.008700    -21.355707    39.914536    4.636919    3.558943    -10.136788    -4.505744    6.625834    -3.071185    32.648552    7.643756    -0.568259    -6.598952    -6.140320    -4.558840    15.939040    9.190472    -28.571205    -30.887625    6.314742    -55.265408    -1.720565    -30.928667    -100.784950    -15.439765    -30.298721    -20.506054    -2.822828    -7.648056    -15.502201    7.106728    -0.393748    4.847551    19.660721    18.385469    66.850677    -15.464651    2.247764    23.929781    26.190845    -1.489001    7.432930    -3.297344    32.842331    -17.460873    6.325629    -17.571838    31.264345    0.000000    0.000000    0.000000    -93.341423    -46.978779    -57.475559    9.149780    20.860371    -7.312549    16.521519    18.884417    -24.481659    0.000000    0.000000    0.000000    
-21.839409    166.914581    -19.268242    -11.966762    -21.348352    39.957836    4.616625    3.520499    -10.100893    -4.403718    6.732261    -3.061711    32.425285    7.529501    -0.560935    -6.490953    -6.110577    -4.543753    15.838802    9.175851    -28.451664    -30.767982    6.461836    -55.380096    -1.636917    -31.132944    -100.777802    -15.526188    -30.398617    -20.543652    -2.352721    -7.525173    -15.455836    7.771770    -0.158254    4.776846    19.000643    17.109211    67.739479    -14.877073    1.456174    22.574011    26.150219    -1.495072    7.439139    -3.297302    32.856728    -17.482656    6.346443    -17.573318    31.251299    0.000000    0.000000    0.000000    -93.362221    -46.949203    -57.470310    9.134268    20.864029    -7.336205    16.505203    18.894222    -24.433521    0.000000    0.000000    0.000000    
-21.819441    166.894089    -19.313198    -11.931363    -21.327364    40.002632    4.605513    3.477965    -10.068663    -4.302536    6.835451    -3.053675    32.121635    7.380399    -0.560088    -6.288156    -6.047441    -4.518095    15.694366    9.116899    -28.339991    -30.658865    6.607400    -55.448418    -1.579507    -31.283188    -100.800407    -15.587254    -30.478359    -20.567501    -1.824041    -7.346412    -15.436741    8.369591    -0.123622    4.796436    18.115482    16.150162    68.305183    -14.671691    0.984992    22.549875    26.105068    -1.520341    7.431860    -3.315683    32.877331    -17.487329    6.390076    -17.578438    31.254530    0.000000    0.000000    0.000000    -93.394402    -46.918354    -57.486526    9.102461    20.859859    -7.309091    16.520863    18.912771    -24.442858    0.000000    0.000000    0.000000    
-21.801706    166.879776    -19.346241    -11.889687    -21.329285    40.060337    4.569929    3.462111    -10.036057    -4.131658    6.947593    -3.049543    31.748997    7.199712    -0.568656    -6.034239    -5.972290    -4.494152    15.513477    9.069109    -28.220160    -30.530689    6.738005    -55.537617    -1.545672    -31.416752    -100.833206    -15.647895    -30.566885    -20.586443    -1.296911    -7.181843    -15.478333    8.946210    -0.177994    4.921246    17.246250    15.237443    68.798615    -14.473351    0.596138    22.406235    26.074438    -1.514965    7.419360    -3.326146    32.865391    -17.477650    6.394162    -17.588409    31.205774    0.000000    0.000000    0.000000    -93.390869    -46.874249    -57.462151    9.090146    20.840300    -7.323403    16.621540    18.862738    -24.619118    0.000000    0.000000    0.000000    
-21.788906    166.863602    -19.389074    -11.852205    -21.314947    40.115612    4.535512    3.440894    -10.012550    -3.968135    7.038118    -3.049106    31.368404    7.057056    -0.572233    -5.761258    -5.925569    -4.449911    15.326364    9.014184    -28.133282    -30.440054    6.841949    -55.561611    -1.523399    -31.484140    -100.880508    -15.648438    -30.610857    -20.604126    -0.927833    -7.105624    -15.427354    9.636135    -0.448193    4.949512    16.702179    14.644069    69.098976    -14.438432    0.331824    22.227777    26.033716    -1.522292    7.410495    -3.344097    32.845699    -17.456108    6.432692    -17.591698    31.171968    0.000000    0.000000    0.000000    -93.403282    -46.836857    -57.459606    9.057773    20.820658    -7.326037    16.602089    18.895462    -24.566584    0.000000    0.000000    0.000000    
-21.773466    166.854034    -19.426008    -11.812188    -21.320009    40.172329    4.505519    3.433205    -9.995676    -3.803332    7.118867    -3.051353    31.079901    6.973710    -0.575947    -5.618980    -5.928430    -4.424037    15.168313    8.977672    -28.063316    -30.416235    6.884838    -55.574371    -1.540072    -31.477968    -100.935326    -15.662219    -30.622866    -20.591810    -0.435462    -7.037746    -15.353206    10.216105    -0.658762    5.000410    15.933754    13.935841    69.471497    -14.400805    0.101757    22.030792    25.996387    -1.502754    7.428129    -3.322825    32.805153    -17.465229    6.440944    -17.596119    31.120239    0.000000    0.000000    0.000000    -93.382820    -46.795998    -57.428692    9.032525    20.800753    -7.325611    16.587761    18.919001    -24.529116    0.000000    0.000000    0.000000    
-21.762791    166.843781    -19.466791    -11.776480    -21.317564    40.234936    4.476567    3.415523    -9.997328    -3.650240    7.200297    -3.059357    30.844814    6.908082    -0.572573    -5.549600    -5.941837    -4.404826    15.058624    8.960805    -27.954470    -30.390430    6.946236    -55.629387    -1.531824    -31.513252    -100.963226    -15.663504    -30.653116    -20.569246    0.010513    -6.983231    -15.273726    10.811710    -1.086181    5.098871    15.412696    13.471545    69.672371    -14.338337    -0.007898    21.840010    25.960270    -1.492491    7.439530    -3.312767    32.756859    -17.472235    6.466991    -17.588413    31.065466    0.000000    0.000000    0.000000    -93.368095    -46.742374    -57.387123    9.020318    20.766029    -7.329898    16.551802    18.955908    -24.478073    0.000000    0.000000    0.000000    
-21.754683    166.832733    -19.508873    -11.725961    -21.303976    40.292130    4.420857    3.395267    -9.990766    -3.493505    7.288914    -3.065138    30.632816    6.863537    -0.559921    -5.503468    -5.983787    -4.377656    14.964736    8.925931    -27.861208    -30.350252    7.036890    -55.660606    -1.498886    -31.590422    -100.984451    -15.684611    -30.693682    -20.570202    0.487500    -6.932205    -15.183554    11.413151    -1.428053    5.193832    14.726502    12.868070    69.948166    -14.305817    -0.145005    21.534353    25.901325    -1.481578    7.492056    -3.268295    32.715012    -17.540285    6.489196    -17.583553    31.029623    0.000000    0.000000    0.000000    -93.377037    -46.703606    -57.336128    9.015308    20.730278    -7.338303    16.529980    18.993746    -24.458841    0.000000    0.000000    0.000000    
-21.747164    166.821869    -19.545996    -11.675334    -21.299046    40.354900    4.374312    3.363220    -9.986833    -3.355273    7.405725    -3.070065    30.486607    6.808285    -0.531149    -5.536184    -6.017341    -4.357642    14.892734    8.878725    -27.762436    -30.297758    7.143097    -55.698738    -1.467031    -31.693403    -100.999489    -15.774092    -30.752298    -20.557402    0.967487    -6.867444    -15.123569    12.053523    -1.719696    5.321280    13.992175    12.163713    70.277092    -14.018879    -0.316339    21.303793    25.852308    -1.474192    7.511708    -3.249690    32.689381    -17.593880    6.533503    -17.565371    31.026684    0.000000    0.000000    0.000000    -93.369232    -46.667316    -57.320999    8.966161    20.712086    -7.291375    16.510242    19.021530    -24.414658    0.000000    0.000000    0.000000    
